<svg xmlns="http://www.w3.org/2000/svg" viewBox="0 0 1382 1453">
  <title>chargebeam</title>
  <circle fill="#666666" cx="697" cy="398" r="361"/>
  <circle fill="#ffb508" cx="697" cy="398" r="203"/>
  <polygon fill="#666666" points="731.64 276 810 0 572 0 658.68 276 731.64 276"/>
  <path fill="#666666" d="M590,1103c-157.95,0-286,128-286,286s128.05,286,286,286,286-128,286-286S748,1103,590,1103Zm0,439a153,153,0,1,1,153-153A153,153,0,0,1,590,1542Z" transform="translate(-304 -222)"/>
  <path fill="#666666" d="M1400,1103c-158,0-286,128-286,286s128,286,286,286,286-128,286-286S1558,1103,1400,1103Zm0,439a153,153,0,1,1,153-153A153,153,0,0,1,1400,1542Z" transform="translate(-304 -222)"/>
  <g>
    <rect fill="#ffb508" x="572" y="1128" width="238" height="78"/>
    <rect fill="#666666" x="439" y="1098" width="183" height="138"/>
    <rect fill="#666666" x="760" y="1098" width="183" height="138"/>
  </g>
  <g>
    <rect fill="#ffb508" x="602" y="967" width="238" height="78" transform="translate(-820.46 807.88) rotate(-55.48)"/>
    <rect fill="#666666" x="605.71" y="1034.04" width="97.32" height="137.87" transform="translate(-929.23 795) rotate(-55.48)"/>
    <rect fill="#666666" x="720.46" y="804.77" width="183" height="138" transform="translate(-672.1 825.53) rotate(-55.48)"/>
  </g>
  <g>
    <rect fill="#ffb508" x="1152.67" y="967" width="238" height="78" transform="translate(859.54 2401.86) rotate(-124.52)"/>
    <rect fill="#666666" x="1269.36" y="1054.32" width="137.87" height="97.32" transform="translate(-693.42 730.72) rotate(-34.52)"/>
    <rect fill="#666666" x="1111.71" y="782.27" width="138" height="183" transform="translate(-591.27 601.04) rotate(-34.52)"/>
  </g>
</svg>
