<svg xmlns="http://www.w3.org/2000/svg" viewBox="0 0 1375 1477">
  <title>grapplebeam</title>
  <polygon fill="#ffb508" points="877 1071 495 1071 453 1194 686 1477 919 1194 877 1071"/>
  <polygon fill="#ffb508" points="977 0 1375 132 1375 548 1131 713 879 795 815 644 1235 466 1278 189 977 0"/>
  <polygon fill="#ffb508" points="398 0 0 132 0 548 244 713 496 795 560 644 140 466 97 189 398 0"/>
  <polygon fill="#666666" points="895 1011 779.65 944.38 887.5 854.5 879.5 794.5 815.5 643.5 687 561.5 558.5 643.5 494.5 794.5 486.5 854.5 594.35 944.38 479 1011 447 1190 473 1203 503 1101 613 1118 643 1230 731 1230 761 1118 871 1101 901 1203 927 1190 895 1011"/>
</svg>
