<svg xmlns="http://www.w3.org/2000/svg" viewBox="0 0 818 1411.83">
  <title>missile</title>
  <polygon fill="#ffb508" points="409.36 0.53 409.36 0 409.18 0.27 409 0 409 0.53 270 205.82 270 258.82 548.36 258.82 548.36 205.82 409.36 0.53"/>
  <polygon fill="#a15621" points="509 434.82 309 434.82 309 876.83 509 877.16 509 434.82"/>
  <polygon fill="#666666" points="541 145.82 518 161.82 541 234.82 478 216.82 460 122.83 358 122.83 340 216.82 277 234.82 300 161.82 277 145.82 244 241.82 244 387.82 274 407.82 308 443.82 366 434.82 452 434.82 510 443.82 544 407.82 574 387.82 574 241.82 541 145.82"/>
  <polygon fill="#666666" points="513 536.83 450 530.83 368 530.83 305 536.83 280 579.83 280 644.83 309 684.83 368 681.83 450 681.83 509 684.83 538 644.83 538 579.83 513 536.83"/>
  <polygon fill="#a15621" points="164 1018.44 25 1178.83 25 1381.83 204.62 1287.68 164 1018.44"/>
  <polygon fill="#a15621" points="654 1018.44 793 1178.83 793 1381.83 613.38 1287.68 654 1018.44"/>
  <polygon fill="#666666" points="635 960.83 590 939.83 509 873.83 450 876.83 368 876.83 309 873.83 228 939.83 183 960.83 152 1054.83 152 1275.83 228.13 1292.98 301 1378.83 365 1394.83 453 1394.83 517 1378.83 589.87 1292.98 666 1275.83 666 1054.83 635 960.83"/>
  <polygon fill="#666666" points="7 1167.83 0 1195.83 0 1385.83 17 1411.83 25 1381.83 26 1178.83 7 1167.83"/>
  <polygon fill="#666666" points="811 1167.83 818 1195.83 818 1385.83 801 1411.83 793 1381.83 792 1178.83 811 1167.83"/>
</svg>
