<svg xmlns="http://www.w3.org/2000/svg" viewBox="0 0 1330 1416">
  <title>morphballbomb</title>
  <polygon fill="#a15621" points="1230 190 992 34 864 0 768 190 665.25 166.06 665 166 665 166.12 562.5 190 466.5 0 338.5 34 100.5 190 0.5 600 0.5 816 100.5 1226 338.5 1382 466.5 1416 562.5 1226 665 1249.88 665 1250 665.25 1249.94 768 1226 864 1416 992 1382 1230 1226 1330 816 1330 600 1230 190"/>
  <polygon fill="#666666" points="982 584.6 348 584.6 0 599.5 0 815.5 348 832.5 982 832.5 1330 815.5 1330 599.5 982 584.6"/>
  <polygon fill="#ffb508" points="390 446.5 545.02 155.41 482.4 31.46 390 157.5 390 446.5"/>
  <polygon fill="#ffb508" points="390 969.47 545.02 1260.56 482.4 1384.5 390 1258.46 390 969.47"/>
  <polygon fill="#ffb508" points="940 447.5 784.98 156.41 847.6 32.47 940 158.5 940 447.5"/>
  <polygon fill="#ffb508" points="940 969.47 785.98 1261.56 848.6 1385.5 940 1258.46 940 969.47"/>
</svg>
