<svg xmlns="http://www.w3.org/2000/svg" viewBox="0 0 215.38 228">
  <defs>
    <style> .a { opacity: 0.5; } </style>
  </defs>
  <title>gravitysuit</title>
  <circle fill="#6d8384" cx="107.69" cy="115" r="107.69"/>
  <circle fill="#666666" cx="107.64" cy="115.05" r="88.31"/>
  <g>
    <path class="a" d="M168,228.22c1.29-.41,2.56-.85,3.82-1.31l-15.33-52.07h0l-12.45-29.46-2.8-1.33-1,2.85,12.27,29Z" transform="translate(-33.62 -29)"/>
    <path class="a" d="M186.69,241.78l-14.85-14.87c-1.26.46-2.53.9-3.82,1.31l15.13,15.13C184.34,242.85,185.52,242.33,186.69,241.78Z" transform="translate(-33.62 -29)"/>
  </g>
  <g>
    <path fill="#ff0000" d="M219.7,184.65c.62-1.2,1.21-2.41,1.78-3.63l-47.67-26h0l-29.62-12-2.93,1,1.34,2.7,29.18,11.82Z" transform="translate(-33.62 -29)"/>
    <path class="a" d="M242.5,181h-21c-.57,1.22-1.16,2.43-1.78,3.63h21.4C241.58,183.45,242.05,182.25,242.5,181Z" transform="translate(-33.62 -29)"/>
  </g>
  <g>
    <path fill="#ff0000" d="M225.43,117.29c-.41-1.29-.84-2.56-1.31-3.82L172.05,128.8h0L142.6,141.25l-1.34,2.8,2.86,1,29-12.27Z" transform="translate(-33.62 -29)"/>
    <path class="a" d="M239,98.62l-14.88,14.85c.47,1.26.9,2.53,1.31,3.82l15.13-15.13Q239.81,100.38,239,98.62Z" transform="translate(-33.62 -29)"/>
  </g>
  <g>
    <path class="a" d="M181.86,65.61c-1.2-.62-2.41-1.21-3.63-1.78l-26,47.67h0l-12,29.62,1,2.93,2.7-1.34,11.82-29.18Z" transform="translate(-33.62 -29)"/>
    <path class="a" d="M178.25,42.81l0,21c1.22.57,2.43,1.16,3.63,1.78V44.21C180.66,43.73,179.46,43.26,178.25,42.81Z" transform="translate(-33.62 -29)"/>
  </g>
  <g>
    <path class="a" d="M114.5,59.88c-1.28.41-2.56.84-3.82,1.31L126,113.26h0l12.45,29.45,2.8,1.34,1-2.85-12.28-29Z" transform="translate(-33.62 -29)"/>
    <path class="a" d="M95.83,46.31l14.85,14.88c1.26-.47,2.54-.9,3.82-1.31L99.38,44.75C98.19,45.25,97,45.77,95.83,46.31Z" transform="translate(-33.62 -29)"/>
  </g>
  <g>
    <path fill="#ff0000" d="M62.82,103.45q-.93,1.8-1.77,3.63l47.66,26h0l29.63,12,2.92-1-1.33-2.7-29.18-11.82Z" transform="translate(-33.62 -29)"/>
    <path class="a" d="M40,107.06l21,0q.84-1.83,1.77-3.63H41.43C40.94,104.65,40.47,105.85,40,107.06Z" transform="translate(-33.62 -29)"/>
  </g>
  <g>
    <path fill="#ff0000" d="M57.09,170.81c.41,1.28.85,2.56,1.31,3.82l52.07-15.33h0l29.46-12.45,1.33-2.8-2.85-1-29,12.27Z" transform="translate(-33.62 -29)"/>
    <path class="a" d="M43.53,189.48,58.4,174.63c-.46-1.26-.9-2.54-1.31-3.82L42,185.94C42.46,187.12,43,188.31,43.53,189.48Z" transform="translate(-33.62 -29)"/>
  </g>
  <g>
    <path class="a" d="M100.66,222.49q1.8.93,3.63,1.77l26-47.66h0l12-29.63-1-2.92-2.7,1.34-11.82,29.17Z" transform="translate(-33.62 -29)"/>
    <path class="a" d="M104.28,245.28v-21q-1.83-.84-3.63-1.77v21.39C101.86,244.37,103.06,244.84,104.28,245.28Z" transform="translate(-33.62 -29)"/>
  </g>
  <polygon fill="#6d8384" points="198.71 0 55.38 77.67 58.38 139.33 86.05 146.33 117.71 117.67 123.38 123.67 15.71 228 162.71 146.33 161.05 85 132.38 81.33 102.38 108.67 98.05 104.67 198.71 0"/>
  <polygon fill="#f7fbf7" points="182.05 13.17 59.21 80 61.21 136.17 85.21 142.33 117.21 112.67 128.71 124 37.55 212.17 159.38 143.83 157.55 88 132.71 85.17 101.71 113.73 92.21 105 182.05 13.17"/>
</svg>
