<svg xmlns="http://www.w3.org/2000/svg" viewBox="0 0 1375.28 1831.5">
  <defs>
    <style>
      .a {
        fill: #ffb508;
      }

      .b {
        fill: #a15621;
      }

      .c {
        fill: #666;
      }
    </style>
  </defs>
  <title>powerbomb</title>
  <g>
    <rect fill="#ffb508" x="339.47" y="625.47" width="263.76" height="280.43" transform="translate(-688.08 963.77) rotate(-76.3)"/>
    <rect fill="#ffb508" x="500.68" y="107.77" width="257.49" height="534.22" transform="translate(-405.93 255.35) rotate(-27.57)"/>
    <rect fill="#ffb508" x="339.47" y="1082.64" width="263.76" height="280.43" transform="translate(1243.89 396.77) rotate(76.3)"/>
    <rect fill="#ffb508" x="500.68" y="1346.55" width="257.49" height="534.22" transform="translate(514.38 -186.6) rotate(27.57)"/>
    <rect fill="#ffb508" x="1379.83" y="625.47" width="263.76" height="280.43" transform="translate(821.95 2337.21) rotate(-103.7)"/>
    <rect fill="#ffb508" x="1224.9" y="107.77" width="257.49" height="534.22" transform="translate(2076.2 1255.16) rotate(-152.43)"/>
    <rect fill="#ffb508" x="1379.83" y="1082.64" width="263.76" height="280.43" transform="translate(2753.91 -34.74) rotate(103.7)"/>
    <rect fill="#ffb508" x="1224.9" y="1346.55" width="257.49" height="534.22" transform="translate(2996.5 2339.11) rotate(152.43)"/>
  </g>
  <polygon fill="#a15621" points="1040.55 592.14 891.88 494.7 811.92 473.46 751.95 592.14 687.77 577.19 687.61 577.15 687.61 577.23 623.58 592.14 563.62 473.46 483.66 494.7 334.99 592.14 272.52 848.26 272.52 983.19 334.99 1239.3 483.66 1336.75 563.62 1357.99 623.58 1239.3 687.61 1254.22 687.61 1254.29 687.77 1254.26 751.95 1239.3 811.92 1357.99 891.88 1336.75 1040.55 1239.3 1103.02 983.19 1103.02 848.26 1040.55 592.14"/>
  <polygon fill="#666666" points="885.63 838.64 489.59 838.64 272.21 847.95 272.21 982.88 489.59 993.49 885.63 993.49 1103.02 982.88 1103.02 847.95 885.63 838.64"/>
  <polygon fill="#ffb508" points="515.83 752.37 612.66 570.53 573.55 493.11 515.83 571.84 515.83 752.37"/>
  <polygon fill="#ffb508" points="515.83 1079.05 612.66 1260.89 573.55 1338.31 515.83 1259.58 515.83 1079.05"/>
  <polygon fill="#ffb508" points="859.4 753 762.56 571.16 801.68 493.74 859.4 572.47 859.4 753"/>
  <polygon fill="#ffb508" points="859.4 1079.05 763.18 1261.51 802.3 1338.94 859.4 1259.58 859.4 1079.05"/>
</svg>
