<svg xmlns="http://www.w3.org/2000/svg" viewBox="0 0 1899 1913">
  <title>spacejumpboots</title>
  <polygon fill="#864f2f" points="925 153 964 144 1282 178 1635 22 1668 0 1544 583 1664 756 1608 794 1593 826 1618 970 1635 970 1680 988 1706 1026 1818 950 1873 1007 1873 1022 1899 1049 1792 1156 1783 1357 1739 1400 1796 1613 1164 1721 1154 1656 954 1757 18 1913 0 1785 58 1593 527 1380 519 1318 683 1232 683 349 759 239 912 490 925 153"/>
  <polygon fill="#c68a5a" points="925 153 964 144 1282 178 1635 22 1668 0 1544 583 1664 756 1608 794 1593 826 1618 970 1555 976 1411 1073 1181 924 912 490 925 153"/>
</svg>
