<svg xmlns="http://www.w3.org/2000/svg" viewBox="0 0 1454 1454.44">
  <defs>
    <style> .a { opacity: 0.75; } </style>
  </defs>
  <title>spiderball</title>
  <circle fill="#a5fb39" cx="727" cy="727" r="727"/>
  <path fill="#ed7e3a" d="M558.56,422.36,703,376l168,55,51,46,48,342-33,86-49,42-15,61-50,67-109,51L518,1252l-12,33-9,111,4,96,21,48,36.56,37.71S273,1383,273,1000c0-385,285.51-577.64,285.51-577.64" transform="translate(-273 -273)"/>
  <path fill="#ed7e3a" d="M720.47,1671.12,608.1,1569.21l-36.37-173,14.34-67.17,272.18-212.57,91-14.42,60.87,21.43,60.33-17.5,83,9.8,98.67,68.89,207.12,106.74,34.58-6.1,100.63-47.71,81.13-51.46,31.07-42.19,14.38-50.52s-25.84,344.66-357.53,536.16c-333.42,192.5-643,41.56-643,41.56" transform="translate(-273 -273)"/>
  <path fill="#ed7e3a" d="M1721,906.52l-32.07,148.27-131.63,118L1491.93,1194l-320.18-129.43-58-71.58-11.87-63.43L1056.57,886l-33-76.8,10.33-119.89-11.12-232.74-22.58-26.9-91.63-63.29-85.13-44.54L771.35,316l-50.94,12.8s311.4-149.94,643.09,41.56C1696.92,562.9,1721,906.48,1721,906.48" transform="translate(-273 -273)"/>
  <circle class="a" fill="#35a439" cx="727" cy="727" r="536"/>
</svg>
