<svg xmlns="http://www.w3.org/2000/svg" viewBox="0 0 1329 1161.46">
  <title>thermalvisor</title>
  <path fill="#8d5eef" d="M1542.46,901.64,1503,924.41,1314.24,596.93,1359,571.09,1243.5,363h-279v1h-208L640.24,573.49,684.38,599l-189,327.33L456.76,904,335.5,1122.5l232,402h243v-71h378v70h244l232-402ZM810.5,1394v-55.33H705.9L548.14,1065.31l45.61-82.18-40.47-23.37,189-327.33,34.91,20.15,57.19-103H975.86v-.68h189.72l56.28,101.39,34.59-20,188.79,327.48-39.9,23,46.52,83.82L1294.1,1338H1188.5v56Z" transform="translate(-335.5 -363.04)"/>
</svg>
