<svg xmlns="http://www.w3.org/2000/svg" viewBox="0 0 1159 1418">
  <title>wavebeam</title>
  <polygon fill="#9c84ff" points="589 705 399 893 399 1310 507 1418 805 1367 971 955 589 705"/>
  <polygon fill="#9c84ff" points="308 942 308 1221 0 856 44 824 102 819 308 942"/>
  <polygon fill="#9c84ff" points="518 631 399 750 388 156 412 118 460 93 518 631"/>
  <polygon fill="#9c84ff" points="628 603 688 0 729 7 752 36 735 673 628 603"/>
  <polygon fill="#9c84ff" points="792 711 997 186 1031 189 1051 234 888 774 792 711"/>
  <polygon fill="#9c84ff" points="953 817 1123 492 1154 501 1159 551 1019 860 953 817"/>
</svg>
