<svg xmlns="http://www.w3.org/2000/svg" viewBox="0 0 1248.99 1248.99">
  <title>xrayvisor</title>
  <path fill="#e2e2e2" d="M1562.48,729.48l-57.36,27a562.26,562.26,0,0,0-266.76-265.63l27.72-58.07c-168.21-79.94-364.5-80.26-532.71-1.63l28,59.38A562.25,562.25,0,0,0,493.8,756.65l-59.66-28.48c-81.06,170-80.74,368.76.29,538.28l59.43-28a562.29,562.29,0,0,0,268,266.26L734,1563.14a626.3,626.3,0,0,0,532.72-2.23l-27-57.4A562.27,562.27,0,0,0,1506,1236.75l56.83,27.13A626.31,626.31,0,0,0,1562.48,729.48ZM1204,1427.64l-18.5-39.31a435.71,435.71,0,0,1-368.79,1.58l-18.5,38.75a477.39,477.39,0,0,1-227.64-226.3l37.55-17.68a435.71,435.71,0,0,1-1.85-374.36l-35.56-17A477.37,477.37,0,0,1,797.61,567.61L814,602.47a435.71,435.71,0,0,1,371,.13l16.83-35.25a477.49,477.49,0,0,1,227,225l-36.64,17.25a435.67,435.67,0,0,1-.38,372.65l38.43,18.34A477.41,477.41,0,0,1,1204,1427.64Z" transform="translate(-373.5 -372.51)"/>
  <polygon fill="#e2e2e2" points="901.76 487.92 765.5 351.65 626.34 490.8 487.19 351.65 350.92 487.92 490.07 627.07 350.92 766.22 487.19 902.49 626.34 763.34 765.5 902.49 901.76 766.22 762.61 627.07 901.76 487.92"/>
</svg>
